<svg xmlns="http://www.w3.org/2000/svg" xmlns="http://www.w3.org/2000/svg" viewBox="0 0 160 31" width="160" height="31"><path d="M8.12346 24.8618C9.5969 24.8618 10.7914 23.6674 10.7914 22.194C10.7914 20.7205 9.5969 19.526 8.12346 19.526C6.65002 19.526 5.45557 20.7205 5.45557 22.194C5.45557 23.6674 6.65002 24.8618 8.12346 24.8618Z" stroke="#0AAD0A" stroke-width="1.28276" stroke-miterlimit="10" stroke-linecap="round" />
<path d="M6.97607 9.18945H23.1146" stroke="#0AAD0A" stroke-width="1.28276" stroke-miterlimit="10" stroke-linecap="round" />
<path d="M8.38892 12.4171H22.4092" stroke="#0AAD0A" stroke-width="1.28276" stroke-miterlimit="10" stroke-linecap="round" />
<path d="M7.66113 19.525H18.1138C19.2586 19.525 20.2784 18.7977 20.6505 17.7144L24.9585 5.1809C25.3307 4.09761 26.3495 3.37036 27.4953 3.37036H30.6292" stroke="#0AAD0A" stroke-width="1.28276" stroke-miterlimit="10" stroke-linecap="round" />
<path d="M8.12359 22.5791C8.33639 22.5791 8.5089 22.4066 8.5089 22.1939C8.5089 21.981 8.33639 21.8086 8.12359 21.8086C7.91079 21.8086 7.73828 21.981 7.73828 22.1939C7.73828 22.4066 7.91079 22.5791 8.12359 22.5791Z" stroke="#0AAD0A" stroke-width="1.06897" stroke-miterlimit="10" stroke-linecap="round" />
<path d="M17.8222 24.8618C19.2956 24.8618 20.49 23.6674 20.49 22.194C20.49 20.7205 19.2956 19.526 17.8222 19.526C16.3487 19.526 15.1543 20.7205 15.1543 22.194C15.1543 23.6674 16.3487 24.8618 17.8222 24.8618Z" stroke="#0AAD0A" stroke-width="1.28276" stroke-miterlimit="10" stroke-linecap="round" />
</svg>